<?xml version="1.0" encoding="UTF-8" standalone="no"?>
<!--
   ***************************************************************************
   Bundesanstalt fuer Strassenwesen
   RWB-Symbol
   Bezeichnung:
   Industriegebiet, Gewerbegebiet
   Ausdehnung in cm:
         X_min     X_max     Y_min     Y_max
         0.00000  15.00000   0.00000  15.00000
-->

<svg
   xmlns:dc="http://purl.org/dc/elements/1.1/"
   xmlns:cc="http://creativecommons.org/ns#"
   xmlns:rdf="http://www.w3.org/1999/02/22-rdf-syntax-ns#"
   xmlns:svg="http://www.w3.org/2000/svg"
   xmlns="http://www.w3.org/2000/svg"
   xmlns:sodipodi="http://sodipodi.sourceforge.net/DTD/sodipodi-0.dtd"
   xmlns:inkscape="http://www.inkscape.org/namespaces/inkscape"
   width="130"
   height="117.5"
   version="1.1"
   id="svg2"
   inkscape:version="0.47pre4 r22446"
   sodipodi:docname="RWB_Industriegebiet.svg">
  <metadata
     id="metadata16">
    <rdf:RDF>
      <cc:Work
         rdf:about="">
        <dc:format>image/svg+xml</dc:format>
        <dc:type
           rdf:resource="http://purl.org/dc/dcmitype/StillImage" />
        <dc:title></dc:title>
      </cc:Work>
    </rdf:RDF>
  </metadata>
  <defs
     id="defs14">
    <inkscape:perspective
       sodipodi:type="inkscape:persp3d"
       inkscape:vp_x="0 : 75 : 1"
       inkscape:vp_y="0 : 1000 : 0"
       inkscape:vp_z="150 : 75 : 1"
       inkscape:persp3d-origin="75 : 50 : 1"
       id="perspective18" />
  </defs>
  <sodipodi:namedview
     pagecolor="#ffffff"
     bordercolor="#666666"
     borderopacity="1"
     objecttolerance="10"
     gridtolerance="10"
     guidetolerance="10"
     inkscape:pageopacity="0"
     inkscape:pageshadow="2"
     inkscape:window-width="1280"
     inkscape:window-height="934"
     id="namedview12"
     showgrid="false"
     inkscape:zoom="1.5733333"
     inkscape:cx="65"
     inkscape:cy="55"
     inkscape:window-x="0"
     inkscape:window-y="33"
     inkscape:window-maximized="1"
     inkscape:current-layer="svg2" />
  <!--
   ***************************************************************************
-->
  <!--
      INHALT
-->
  <path
     d="m 0,117.5 0,-55 32.5,17 0,-17 32.5,17 0,-17 32.5,17 0,-17 32.5,17 0,38 -130,0 z"
     id="path6"
     style="fill:#000000;fill-rule:evenodd;stroke:none" />
  <!--
      FABRIKGEBAEUDE
      FENSTER
-->
  <path
     d="m 9,110.5 0,-19 32.5,0 0,19 -32.5,0 z m 39.75,0 0,-19 32.5,0 0,19 -32.5,0 z m 39.75,0 0,-19 32.5,0 0,19 -32.5,0 z"
     id="path8"
     style="fill:#ffffff;fill-rule:evenodd;stroke:none" />
  <!--
      SCHORNSTEINE
-->
  <path
     d="M 44,0 41.511,64.7134 55.776,72.1751 53,0 44,0 z M 76.5,10 74.011,64.7134 88.276,72.1751 85.5,10 l -9,0 z"
     id="path10"
     style="fill:#000000;fill-rule:evenodd;stroke:none" />
</svg>
